<svg width="800" height="800" viewBox="0 0 800 800" fill="none" xmlns="http://www.w3.org/2000/svg">
<path d="M488.134 0L305.525 0.0170747L245.629 0.645029L215.775 1.62902L182.756 3.80972L155.251 7.06353L124.989 13.0736L107.9 18.142L89.1486 25.7368L78.5224 31.3148L64.4646 40.6437L53.1966 50.3085L42.9045 61.5763L34.2025 73.7467L27.6428 85.2783L24.4857 91.8379L18.1399 107.9L11.8451 130.004L7.50734 152.361L3.80739 182.756L1.76293 212.884L0.624156 246.462L0.00847181 307.601L0 489.179L0.534742 549.167L1.2852 576.023L3.94036 618.662L5.91756 636.546L11.1263 666.808L13.4054 676.273L19.9292 697.069L24.0691 707.202L34.913 727.331L47.7507 744.044L52.1402 748.624L64.4646 759.323L70.5459 763.674L86.0697 772.723L102.641 779.94L109.858 782.483L128.882 787.854L155.251 792.903L185.513 796.399L215.775 798.338L257.736 799.552L336.824 800L536.88 799.632L578.92 798.565L617.463 796.135L639.445 793.661L671.094 787.854L699.969 778.929L714.698 772.322L730.231 763.13L737.736 757.592L753.185 742.977L760.493 733.952L765.063 727.331L774.241 710.817L775.624 707.832L780.046 697.069L785.018 681.938L789.191 665.244L790.755 657.5L794.058 636.546L797.518 599.522L798.69 576.023L799.644 536.873L800 475.994L799.766 273.407L799.056 234.845L798.213 212.884L795.687 177.69L792.468 152.361L790.755 142.466L786.148 122.099L784.325 115.67L775.49 91.8379L770.511 81.82L760.493 66.0152L757.071 61.5763L744.055 47.7523L730.231 36.8364L721.453 31.3148L699.969 21.038L684.306 15.6524L660.882 9.87803L639.445 6.30522L607.245 2.99063L569.372 1.05318L518.396 0.140275L488.134 0Z" fill="url(#paint0_linear)"/>
<path fill-rule="evenodd" clip-rule="evenodd" d="M516.757 228.939C516.757 304.568 466.271 365.877 404 365.877C341.725 365.877 291.239 304.568 291.239 228.939C291.239 153.309 307.817 92 404 92C500.182 92 516.757 153.309 516.757 228.939ZM474.679 378.053C598.217 401.931 614.688 440.729 616.728 569.435C616.861 577.862 616.931 579.32 616.966 578.568C616.963 580.199 616.96 582.388 616.959 585.289C616.958 587.602 616.434 589.868 615.093 591.753C606.219 604.22 561.91 652 403.998 652C389.091 652 375.196 651.574 362.248 650.793C353.472 650.263 347.332 642.13 347.803 633.35C347.934 630.917 348 628.466 348 626C348 551.442 287.558 491 213 491C204.653 491 197.642 483.77 199.549 475.644C212.91 418.724 246.956 394.737 333.367 378.042C338.821 376.988 344.434 379.123 348.769 382.596C357.504 389.594 375.316 400.002 403.998 400.002C432.679 400.002 450.489 389.595 459.223 382.597C463.559 379.123 469.224 376.998 474.679 378.053ZM279.619 607.952H291.762C303.095 607.952 312 616.857 312 628.19C312 639.524 303.095 648.429 291.762 648.429H279.619V680.81C279.619 689.714 272.333 697 263.429 697H232.667V684.857C232.667 672.714 222.952 663 210.81 663C198.667 663 188.952 672.714 188.952 684.857V697H158.19C149.286 697 142 689.714 142 680.81V650.048H154.143C166.286 650.048 176 640.333 176 628.19C176 616.048 166.286 606.333 154.143 606.333H142V575.571C142 566.667 149.286 559.381 158.19 559.381H190.571V547.238C190.571 535.905 199.476 527 210.81 527C222.143 527 231.048 535.905 231.048 547.238V559.381H263.429C272.333 559.381 279.619 566.667 279.619 575.571V607.952Z" fill="url(#paint1_linear)"/>
<defs>
<linearGradient id="paint0_linear" x1="0" y1="0" x2="800" y2="800" gradientUnits="userSpaceOnUse">
<stop stop-color="#1E1D32"/>
<stop offset="1" stop-color="#12121E"/>
</linearGradient>
<linearGradient id="paint1_linear" x1="142" y1="92" x2="729.709" y2="553.391" gradientUnits="userSpaceOnUse">
<stop stop-color="#00C8FA"/>
<stop offset="1" stop-color="#0078FA"/>
</linearGradient>
</defs>
</svg>
